<?xml version="1.0" encoding="UTF-8"?>
<svg id="Calque_2" data-name="Calque 2" xmlns="http://www.w3.org/2000/svg" xmlns:xlink="http://www.w3.org/1999/xlink" viewBox="0 0 938.76 459.17">
  <defs>
    <style>
      .cls-1, .cls-2 {
        fill: #fff;
      }

      .cls-3 {
        fill: url(#Dégradé_sans_nom_16);
        opacity: .98;
      }

      .cls-4 {
        fill: #be0000;
      }

      .cls-2 {
        font-family: BigNoodleTitling, BigNoodleTitling;
        font-size: 190px;
      }
    </style>
    <linearGradient id="Dégradé_sans_nom_16" data-name="Dégradé sans nom 16" x1="336.39" y1="272.5" x2="359.68" y2="355.62" gradientUnits="userSpaceOnUse">
      <stop offset="0" stop-color="#fff" stop-opacity="0"/>
      <stop offset=".12" stop-color="#f3d2d2" stop-opacity=".17"/>
      <stop offset=".34" stop-color="#e08888" stop-opacity=".47"/>
      <stop offset=".54" stop-color="#d14d4d" stop-opacity=".7"/>
      <stop offset=".72" stop-color="#c62323" stop-opacity=".86"/>
      <stop offset=".87" stop-color="#c00909" stop-opacity=".96"/>
      <stop offset=".98" stop-color="#be0000"/>
    </linearGradient>
  </defs>
  <g id="Logo_Rv_Cam_Black" data-name="Logo Rv Cam Black">
    <g>
      <path id="cam" class="cls-1" d="M623.59,126.17l-134.83-.17c-6.41,0-9-2.59-9-9v-44.83c0-24.95-20.22-45.17-45.17-45.17H236.93c-24.95,0-45.17,20.22-45.17,45.17V413.83c0,24.95,20.22,45.17,45.17,45.17l386.66,.17c24.95,0,45.17-20.22,45.17-45.17V171c0-24.95-20.22-44.83-45.17-44.83Zm9.17,278.83c-.09,9.99-8.01,17.96-18,18H245.76c-10.11,.04-18-7.89-18-18V81c0-10.08,7.92-18,18-18h180.18c9.91,0,17.58,8.09,17.82,18v45c.52,21.47,14.53,36.19,36,36h135c10.21-.09,18.09,7.79,18,18v225Z"/>
      <path class="cls-1" d="M803.75,45.78c-.42,24.67-21.06,44.22-45.74,44.22h-188.81c-4.67,0-8.45-3.78-8.45-8.45v-16.21c0-1.29-1.05-2.34-2.34-2.34h-58.49c-1.19,0-2.16-.92-2.25-2.1-.92-12.32-9.65-24.32-14.58-30.18-1.24-1.48-.2-3.72,1.73-3.72h73.59c1.29,0,2.34-1.05,2.34-2.34V8.45c0-4.67,3.78-8.45,8.45-8.45h189.55c25.11,0,45.42,20.57,44.99,45.78Z"/>
      <path class="cls-1" d="M695.76,288v-53.71c0-5.13,4.16-9.29,9.29-9.29h134.71v-17.18c0-5.98,3.5-11.41,8.94-13.89l90.06-40.93V432l-90.06-40.93c-5.45-2.48-8.94-7.91-8.94-13.89v-17.18h-134.71c-5.13,0-9.29-4.16-9.29-9.29v-62.71Z"/>
    </g>
    <g>
      <polyline class="cls-1" points="352.24 253.12 311.74 253.12 352.24 405 392.74 405"/>
      <path class="cls-4" d="M429.8,149.05l-52.24,200.26v55.69h25.31l59.43-225.83c.28-1.08-.28-2.22-1.32-2.61-13.21-4.96-23.97-14.93-29.94-27.61-.27-.57-1.09-.5-1.24,.1Z"/>
      <polygon class="cls-3" points="392.74 405 352.24 405 311.74 253.12 352.24 253.12 392.74 405"/>
      <rect class="cls-1" x="245.93" y="81" width="40.5" height="324"/>
      <path class="cls-1" d="M326.22,81h-39.79v35.44h26.06c10.77,0,19.51,8.73,19.51,19.51v82.49c0,10.77-8.73,19.51-19.51,19.51h-26.06v35.44h39.79c22.76,0,41.21-18.45,41.21-41.21V122.21c0-22.76-18.45-41.21-41.21-41.21Z"/>
    </g>
    <g>
      <path class="cls-4" d="M460.45,354.77c-5.78-1.35-8.67-4.83-8.67-10.43v-19.9c0-11.1,5.19-16.65,15.57-16.65h5.14c10.38,0,15.57,5.55,15.57,16.65v8.53h-12.19v-8.66c0-3.79-1.99-5.69-5.96-5.69h-1.49c-2.98,.54-4.47,2.44-4.47,5.69v19.23c0,4.7,1.98,7.04,5.96,7.04h23.96v9.61h-5.82v28.3c0,11.01-5.24,16.52-15.71,16.52h-6.5c-10.47,0-15.71-5.5-15.71-16.52v-22.07c0-5.96,3.43-9.84,10.29-11.64Zm15.43,5.42h-5.82c-5.15,0-7.72,2.35-7.72,7.04v21.26c0,3.79,1.94,5.69,5.82,5.69h2.57c3.43,0,5.14-1.9,5.14-5.69v-28.3Z"/>
      <path class="cls-4" d="M561.85,382.25v6.23c0,11.01-5.19,16.52-15.57,16.52h-8.39c-10.38,0-15.57-5.5-15.57-16.52v-64.18c0-11.01,5.19-16.52,15.57-16.52h8.39c10.38,0,15.57,5.51,15.57,16.52v10.97h-13v-10.02c0-3.79-1.94-5.69-5.82-5.69h-2.57c-3.43,0-5.14,1.9-5.14,5.69v62.28c0,3.79,1.71,5.69,5.14,5.69h3.25c3.43,0,5.14-1.9,5.14-5.69v-5.28h13Z"/>
      <path class="cls-4" d="M587.04,405c-10.47,0-15.71-5.5-15.71-16.52v-64.04c0-11.1,5.19-16.65,15.57-16.65h12.46c10.38,0,15.57,5.55,15.57,16.65v64.04c0,11.01-5.24,16.52-15.71,16.52h-12.19Zm3.11-11.78h6.64c3.43,0,5.14-1.9,5.14-5.69v-62.28c0-3.79-1.94-5.69-5.82-5.69h-6.09c-3.79,0-5.69,1.9-5.69,5.69v62.28c0,3.79,1.94,5.69,5.82,5.69Z"/>
    </g>
    <text class="cls-2" transform="translate(164.96 432.01) rotate(-90.27) scale(.98 1)"><tspan x="0" y="0">STUDIO</tspan></text>
  </g>
</svg>