<?xml version="1.0" encoding="UTF-8"?>
<svg id="Calque_2" data-name="Calque 2" xmlns="http://www.w3.org/2000/svg" xmlns:xlink="http://www.w3.org/1999/xlink" viewBox="0 0 414.06 576">
  <defs>
    <style>
      .cls-1 {
        fill: #fff;
      }

      .cls-2 {
        fill: #be0000;
      }

      .cls-3 {
        fill: url(#Dégradé_sans_nom_15);
        opacity: .98;
      }
    </style>
    <linearGradient id="Dégradé_sans_nom_15" data-name="Dégradé sans nom 15" x1="160.88" y1="340.44" x2="202.29" y2="488.21" gradientUnits="userSpaceOnUse">
      <stop offset="0" stop-color="#fff" stop-opacity="0"/>
      <stop offset=".12" stop-color="#f3d2d2" stop-opacity=".17"/>
      <stop offset=".34" stop-color="#e08888" stop-opacity=".47"/>
      <stop offset=".54" stop-color="#d14d4d" stop-opacity=".7"/>
      <stop offset=".72" stop-color="#c62323" stop-opacity=".86"/>
      <stop offset=".87" stop-color="#c00909" stop-opacity=".96"/>
      <stop offset=".98" stop-color="#be0000"/>
    </linearGradient>
  </defs>
  <g id="Logo_RV_co_black" data-name="Logo RV+co black">
    <g>
      <g>
        <path class="cls-2" d="M9.53,529.5c-5.35-1.25-8.02-4.47-8.02-9.65v-18.43c0-10.28,4.81-15.42,14.42-15.42h4.76c9.61,0,14.42,5.14,14.42,15.42v7.9h-11.28v-8.02c0-3.51-1.84-5.26-5.51-5.26h-1.38c-2.76,.5-4.14,2.26-4.14,5.26v17.8c0,4.35,1.84,6.52,5.52,6.52h22.19v8.9h-5.39v26.2c0,10.2-4.85,15.29-14.54,15.29h-6.02c-9.7,0-14.54-5.1-14.54-15.29v-20.43c0-5.52,3.17-9.11,9.53-10.78Zm14.29,5.01h-5.39c-4.76,0-7.14,2.17-7.14,6.52v19.68c0,3.51,1.8,5.26,5.39,5.26h2.38c3.17,0,4.76-1.75,4.76-5.26v-26.2Z"/>
        <path class="cls-2" d="M103.41,554.94v5.77c0,10.2-4.81,15.29-14.42,15.29h-7.77c-9.61,0-14.42-5.1-14.42-15.29v-59.42c0-10.19,4.8-15.29,14.42-15.29h7.77c9.61,0,14.42,5.1,14.42,15.29v10.15h-12.03v-9.28c0-3.51-1.8-5.27-5.39-5.27h-2.38c-3.18,0-4.76,1.76-4.76,5.27v57.66c0,3.51,1.59,5.27,4.76,5.27h3.01c3.17,0,4.76-1.76,4.76-5.27v-4.89h12.03Z"/>
        <path class="cls-2" d="M126.72,576c-9.7,0-14.54-5.1-14.54-15.29v-59.29c0-10.28,4.8-15.42,14.42-15.42h11.53c9.61,0,14.42,5.14,14.42,15.42v59.29c0,10.2-4.85,15.29-14.54,15.29h-11.28Zm2.88-10.9h6.14c3.17,0,4.76-1.76,4.76-5.27v-57.66c0-3.51-1.8-5.27-5.39-5.27h-5.64c-3.51,0-5.26,1.76-5.26,5.27v57.66c0,3.51,1.8,5.27,5.39,5.27Z"/>
      </g>
      <polyline class="cls-1" points="189.06 306 117.06 306 189.06 576 261.06 576"/>
      <polygon class="cls-2" points="414.06 63 342.06 63 234.06 477 234.06 576 279.06 576 414.06 63"/>
      <polygon class="cls-3" points="261.06 576 189.06 576 117.06 306 189.06 306 261.06 576"/>
      <rect class="cls-1" x=".06" width="72" height="468"/>
      <path class="cls-1" d="M142.8,0H72.06V63h46.32c19.15,0,34.68,15.53,34.68,34.68V244.32c0,19.15-15.53,34.68-34.68,34.68h-46.32v63h70.74c40.46,0,73.26-32.8,73.26-73.26V73.26C216.06,32.8,183.26,0,142.8,0Z"/>
    </g>
  </g>
</svg>